<svg xmlns="http://www.w3.org/2000/svg" viewBox="0 0 16 16">
  <path fill="#ffb300" d="M12.1,6.4c-.4,0-.9.5-1.3,1.2l-.4.7c-.2.3-.2.5-.2,0V3.8c0-.3-.2-.5-.5-.5s-.5.2-.5.5v3.6c0,.3-.6.4-.6,0V3.2c0-.3-.2-.5-.5-.5s-.5.2-.5.5v4.1c0,.5-.5.5-.5,0v-3.4c0-.3-.2-.5-.5-.5s-.5.2-.5.5v3.5c0,.3-.5.3-.5,0v-2.5c0-.3-.2-.5-.5-.5s-.5.2-.5.5v5.5c0,1.5,1,2.6,2.4,2.7s2.2-.2,2.7-1,.5-1.5.9-2.1.5-.9.7-1.3.5-.9.8-1.4.1-.9-.2-.9Z"/>
  <path fill="#dd2c00" d="M8,1c-3.8,0-7,3.1-7,7s3.1,7,7,7,7-3.1,7-7S11.8,1,8,1ZM13.9,8c0,1.4-.5,2.7-1.3,3.7L4.3,3.4c1-.8,2.3-1.3,3.7-1.3,3.2,0,5.9,2.7,5.9,5.9ZM2.1,8c0-1.5.6-2.8,1.4-3.8l8.3,8.3c-1,.8-2.3,1.4-3.8,1.4-3.2,0-5.9-2.7-5.9-5.9Z"/>
</svg>