<svg xmlns="http://www.w3.org/2000/svg" viewBox="0 0 16 16">
  <path d="M12.2 7c-.4 0-.9.6-1.3 1.3l-.4.7c-.2.3-.2.5-.2 0V3.9c0-.3-.2-.5-.5-.5s-.5.2-.5.5v3.7c0 .3-.6.4-.6 0V2.8c0-.3-.2-.5-.5-.5s-.5.2-.5.5V8c0 .5-.5.5-.5 0V4.1c0-.3-.2-.5-.5-.5s-.5.2-.5.5v4c0 .3-.5.3-.5 0V5.5c0-.3-.2-.5-.5-.5s-.5.2-.5.5v5.6c0 1.5 1 2.7 2.5 2.8s2.3-.2 2.8-1 .5-1.5.9-2.2.5-.9.7-1.3.9-1.4.9-1.9-.2-.4-.4-.4Z" style="fill:#ffb300"/>
  <path d="M8 .3C3.8.3.3 3.7.3 8s3.4 7.7 7.7 7.7 7.7-3.4 7.7-7.7S12.2.3 8 .3ZM14.4 8c0 1.5-.5 2.9-1.4 4L4 3c1.1-.9 2.5-1.4 4-1.4 3.5 0 6.4 2.9 6.4 6.4ZM1.6 8c0-1.6.6-3 1.5-4.1l9 9c-1.1.9-2.5 1.5-4.1 1.5-3.5 0-6.4-2.9-6.4-6.4Z" style="fill:#dd2c00"/>
</svg>